<svg xmlns="http://www.w3.org/2000/svg" xmlns:xlink="http://www.w3.org/1999/xlink" width="55.81" height="55.83" viewBox="0 0 55.81 55.83"><defs><style>.a{fill:url(#a);}</style><linearGradient id="a" y1="0.5" x2="1" y2="0.5" gradientUnits="objectBoundingBox"><stop offset="0" stop-color="#199ce8"/><stop offset="1" stop-color="#a263fc"/></linearGradient></defs><path class="a" d="M5.23,45.34H1.74a1.74,1.74,0,0,1,0-3.48H5.23a1.74,1.74,0,1,1,0,3.48ZM55.81,7V48.83a7,7,0,0,1-7,7H10.46a7,7,0,0,1-7-7H5.23a5.23,5.23,0,1,0,0-10.46H3.49V17.44H5.23A5.23,5.23,0,0,0,5.23,7H3.49a7,7,0,0,1,7-7H48.83a7,7,0,0,1,6.98,7ZM52.32,7a3.49,3.49,0,0,0-3.49-3.49H17.44V52.32H48.83a3.5,3.5,0,0,0,3.49-3.49ZM1.74,14H5.23a1.75,1.75,0,1,0,0-3.49H1.74a1.75,1.75,0,0,0,0,3.49ZM47.09,7H22.67a1.74,1.74,0,0,0,0,3.48H47.09a1.74,1.74,0,0,0,0-3.48Zm0,7H22.67a1.75,1.75,0,0,0,0,3.49H47.09a1.75,1.75,0,0,0,0-3.49Zm0,7H22.67a1.75,1.75,0,0,0,0,3.49H47.09a1.75,1.75,0,0,0,0-3.49Zm0,7H22.67a1.75,1.75,0,0,0,0,3.49H47.09a1.75,1.75,0,0,0,0-3.49Zm0,7H22.67a1.75,1.75,0,0,0,0,3.49H47.09a1.75,1.75,0,0,0,0-3.49ZM36.62,42H22.67a1.74,1.74,0,1,0,0,3.48H36.62a1.74,1.74,0,1,0,0-3.48Z"/></svg>