<svg xmlns="http://www.w3.org/2000/svg" xmlns:xlink="http://www.w3.org/1999/xlink" width="58.49" height="56.925" viewBox="0 0 58.49 56.925"><defs><style>.a{fill:url(#a);}</style><linearGradient id="a" y1="0.5" x2="1" y2="0.5" gradientUnits="objectBoundingBox"><stop offset="0" stop-color="#199ce8"/><stop offset="1" stop-color="#a263fc"/></linearGradient></defs><g transform="translate(0 0.005)"><path class="a" d="M55.56,8.69H45.81V3.9A3.905,3.905,0,1,0,38,3.9V8.69H20.47V3.9a3.9,3.9,0,0,0-7.8,0V8.69H2.92A2.92,2.92,0,0,0,0,11.61V54a2.92,2.92,0,0,0,2.92,2.92H55.56A2.93,2.93,0,0,0,58.49,54V11.61a2.93,2.93,0,0,0-2.93-2.92ZM27.29,21.77v7.8H18v-7.8Zm3.9,0h9.26v7.8H31.19Zm-17.06,0v7.8H5.85v-7.8Zm0,11.7v5.84H5.85V33.47Zm3.9,0h9.26v5.84H18Zm9.26,9.74v7.88H18V43.21Zm3.9,0h9.26v7.88H31.19Zm0-3.9V33.47h9.26v5.84Zm13.16-5.84h8.29v5.84H44.35Zm0-3.9v-7.8h8.29v7.8ZM5.85,43.21h8.28v7.88H5.85Zm38.5,7.88V43.21h8.29v7.88Z"/></g></svg>