<svg xmlns="http://www.w3.org/2000/svg" xmlns:xlink="http://www.w3.org/1999/xlink" width="58.87" height="70.62" viewBox="0 0 58.87 70.62"><defs><style>.a{fill:url(#a);}.b{fill:url(#c);}.c{fill:url(#d);}.d{fill:url(#e);}.e{fill:url(#f);}</style><linearGradient id="a" y1="0.5" x2="1" y2="0.5" gradientUnits="objectBoundingBox"><stop offset="0" stop-color="#199ce8"/><stop offset="1" stop-color="#9c65fb"/></linearGradient><linearGradient id="c" x1="0" y1="0.504" y2="0.504" xlink:href="#a"/><linearGradient id="d" x1="0" y1="0.501" y2="0.501" xlink:href="#a"/><linearGradient id="e" x1="0" y1="0.5" y2="0.5" xlink:href="#a"/><linearGradient id="f" x1="0" y1="0.5" y2="0.5" xlink:href="#a"/></defs><rect class="a" width="38.46" height="1.42" transform="translate(10.63 20.524)"/><rect class="a" width="40.46" height="3.42" transform="translate(9.63 19.442)"/><rect class="b" width="38.46" height="1.41" transform="translate(10.63 29.823)"/><rect class="c" width="40.46" height="3.41" transform="translate(9.63 28.796)"/><path class="d" d="M48.926,1H9.944C5.013,1,1,4.6,1,8.924V42.707c0,4.364,4.013,7.912,8.944,7.912h2.985L23.65,68.494l.168.276L34.695,50.62H48.926c4.941,0,8.944-3.6,8.944-7.912V8.924C57.881,4.6,53.868,1,48.926,1Zm0,47.953H33.834l-10.062,16.7-9.95-16.6-.022-.1H9.944c-4.069,0-7.378-2.793-7.378-6.222V8.924C2.565,5.484,5.919,2.7,9.944,2.7H48.926c4.069,0,7.367,2.781,7.367,6.222V42.707C56.294,46.136,53,48.953,48.926,48.953Z" transform="translate(0 0)"/><path class="e" d="M23.84,70.62,12.393,51.591H10.021C4.454,51.591,0,47.536,0,42.553V9.05C0,4.055,4.454,0,10.021,0H48.849C54.416,0,58.87,4.055,58.87,9.05V42.565c0,4.983-4.454,9.039-10.021,9.039H35.286ZM10.021,4.067c-3.441,0-6.236,2.224-6.236,4.983V42.565c.011,2.747,2.806,5.007,6.236,5.007h4.454l.4.642,8.975,14.926,9.364-15.568H48.8c3.441,0,6.224-2.236,6.224-4.983V9.05c0-2.759-2.784-4.983-6.224-4.983Z"/></svg>